<?xml version="1.0" standalone="no"?>
<!DOCTYPE svg PUBLIC "-//W3C//DTD SVG 20010904//EN"
 "http://www.w3.org/TR/2001/REC-SVG-20010904/DTD/svg10.dtd">
<svg version="1.0" xmlns="http://www.w3.org/2000/svg"
 width="960.000000pt" height="272.000000pt" viewBox="0 0 960.000000 272.000000"
 preserveAspectRatio="xMidYMid meet">

<g transform="translate(0.000000,272.000000) scale(0.100000,-0.100000)"
fill="#000000" stroke="none">
<path d="M4505 2707 c-33 -5 -134 -10 -225 -11 -390 -7 -874 -39 -995 -66 -28
-6 -111 -15 -185 -20 -74 -5 -172 -19 -218 -30 -46 -11 -122 -23 -170 -26 -48
-3 -143 -19 -212 -34 -69 -16 -159 -31 -200 -35 -70 -7 -390 -72 -630 -129
-58 -14 -184 -41 -280 -60 -174 -35 -342 -86 -369 -111 -21 -21 9 -231 45
-316 29 -67 64 -190 58 -200 -2 -3 -32 -16 -66 -29 -35 -12 -117 -47 -183 -77
-66 -30 -183 -80 -260 -109 -295 -115 -334 -131 -467 -196 -90 -43 -138 -73
-142 -86 -5 -16 7 -71 16 -72 2 0 66 -22 143 -49 274 -94 470 -170 483 -188
18 -24 10 -71 -27 -148 -16 -35 -39 -103 -50 -152 -12 -48 -51 -176 -88 -284
-73 -215 -74 -237 -22 -264 29 -16 35 -15 152 24 67 21 164 51 216 65 51 15
121 42 155 60 33 19 129 55 211 81 366 114 499 166 548 213 82 78 109 242 58
356 l-19 45 51 10 c29 5 81 13 117 17 36 3 92 15 125 25 135 41 345 87 430 93
50 4 133 18 185 31 52 13 133 26 180 30 120 9 332 34 420 50 41 7 125 17 185
20 61 4 157 16 215 26 204 38 898 53 1610 35 250 -6 505 -25 550 -42 8 -3 87
-10 175 -14 296 -16 968 -121 1430 -225 61 -13 144 -29 185 -35 75 -11 139
-27 152 -39 4 -3 1 -28 -7 -55 -42 -138 9 -284 124 -357 25 -17 98 -46 161
-66 147 -47 477 -163 695 -246 303 -114 330 -123 359 -109 15 6 32 23 38 38
11 23 4 50 -55 227 -37 111 -73 237 -81 280 -8 43 -33 120 -56 173 -53 124
-49 132 75 185 116 50 306 113 420 139 49 12 97 28 107 36 34 32 31 102 -6
126 -6 4 -47 20 -91 34 -44 15 -129 50 -190 79 -60 29 -141 63 -180 75 -91 30
-308 124 -365 159 -48 29 -111 55 -230 92 l-75 24 2 35 c1 19 17 85 36 145 19
61 38 137 42 170 4 33 11 78 17 99 13 54 -3 67 -132 106 -58 18 -147 45 -197
61 -51 16 -136 34 -188 40 -94 10 -329 63 -412 93 -22 8 -117 26 -210 40 -92
15 -267 42 -388 61 -416 66 -653 97 -875 115 -80 6 -192 18 -250 26 -136 19
-523 38 -621 30 -42 -3 -121 -2 -175 4 -130 13 -503 17 -579 7z m421 -206 c61
-27 109 -73 139 -131 55 -108 67 -396 24 -585 -28 -126 -116 -249 -197 -276
-97 -34 -230 -1 -296 72 -82 90 -107 190 -109 429 -1 238 21 334 99 419 38 43
95 78 149 92 48 13 138 3 191 -20z m-1141 -93 c27 -53 47 -100 43 -103 -4 -4
-36 -2 -72 5 -52 10 -90 10 -186 0 -66 -7 -122 -16 -124 -19 -2 -3 -2 -28 1
-54 l6 -49 81 7 c110 9 214 29 257 48 62 27 66 13 33 -103 -16 -56 -34 -104
-41 -107 -6 -3 -24 4 -40 15 -26 19 -36 20 -143 11 -63 -5 -118 -13 -121 -17
-4 -4 4 -86 17 -182 13 -96 24 -194 24 -217 0 -51 8 -57 46 -36 24 14 56 17
177 15 146 -2 148 -2 173 23 26 26 44 32 44 14 0 -17 -39 -171 -50 -197 -9
-22 -11 -22 -39 -7 -40 20 -89 19 -345 -10 -121 -14 -221 -23 -224 -21 -2 3 5
20 17 39 42 68 45 121 17 300 -14 89 -34 234 -46 322 -11 88 -23 171 -26 184
-3 13 -30 50 -61 82 -31 33 -53 59 -50 59 4 0 53 7 109 15 57 8 166 22 243 30
109 11 144 18 165 34 45 36 60 25 115 -81z m1819 77 c109 -2 202 -7 206 -12 8
-8 60 -167 60 -184 0 -13 -37 -11 -68 5 -38 19 -120 33 -235 40 l-98 6 3 -57
3 -58 198 0 c125 0 197 -4 197 -10 0 -20 -92 -186 -106 -192 -8 -3 -22 5 -33
18 -15 19 -32 24 -92 30 -41 4 -97 8 -125 8 l-51 1 -6 -92 c-4 -51 -12 -154
-19 -229 l-12 -136 43 -67 c23 -38 41 -70 39 -72 -6 -5 -328 13 -334 19 -3 2
11 25 30 49 18 25 39 55 45 66 12 23 53 688 44 724 -4 13 -23 47 -45 77 -58
82 -56 85 60 76 53 -4 186 -9 296 -10z m-2631 -188 c27 -43 47 -80 44 -83 -3
-3 -24 0 -48 6 -23 7 -81 12 -127 11 -72 0 -93 -4 -141 -28 -116 -58 -144
-165 -97 -371 42 -188 96 -281 189 -326 67 -33 164 -46 173 -23 3 9 -8 96 -25
194 l-32 178 -61 57 c-39 37 -56 59 -47 62 50 16 339 53 339 43 0 -3 -13 -34
-30 -69 -16 -34 -30 -74 -30 -87 0 -20 13 -105 46 -300 3 -21 22 -51 51 -82
24 -26 42 -53 38 -59 -22 -35 -172 -80 -270 -80 -145 0 -276 50 -366 139 -47
48 -62 71 -96 161 -68 174 -87 310 -62 445 20 112 84 202 173 244 55 27 167
44 233 35 38 -4 53 -3 53 6 0 6 10 10 21 8 14 -2 39 -30 72 -81z m3687 48 c85
-14 156 -28 158 -29 1 -2 -22 -26 -52 -52 -30 -27 -59 -60 -65 -74 -6 -14 -41
-142 -77 -285 -40 -158 -76 -278 -92 -306 l-25 -46 22 -31 c12 -17 46 -43 77
-58 47 -23 63 -26 119 -22 41 4 76 13 99 27 l36 22 -7 58 c-3 35 1 102 11 167
9 60 28 183 41 274 l25 165 -36 69 c-19 38 -32 72 -27 77 4 4 67 -5 139 -21
71 -15 143 -30 159 -32 45 -5 43 -32 -4 -62 -22 -14 -47 -39 -55 -54 -8 -16
-31 -129 -51 -253 -49 -308 -48 -298 -37 -356 15 -84 -18 -132 -132 -190 -108
-56 -289 -38 -402 40 -50 35 -112 115 -133 173 -11 31 -9 40 23 106 22 46 44
117 60 193 14 66 39 179 56 250 l30 130 -35 68 c-37 71 -37 92 -1 83 11 -3 91
-17 176 -31z m-4375 -96 c4 -5 -1 -27 -11 -47 -36 -75 -32 -108 57 -467 l83
-338 53 -41 c83 -64 79 -68 -112 -110 -115 -25 -155 -31 -155 -22 0 2 9 23 20
47 24 53 25 116 5 189 -8 30 -23 83 -32 118 -16 61 -17 63 -42 56 -14 -4 -60
-9 -102 -9 -85 -2 -96 -6 -109 -41 -12 -30 16 -246 36 -286 7 -14 36 -43 63
-65 28 -21 50 -41 51 -44 0 -6 -244 -75 -304 -86 -32 -6 -32 -7 -5 89 11 40
10 68 -5 199 -26 214 -12 368 47 532 14 37 21 69 17 72 -11 7 -85 -20 -138
-50 -69 -38 -82 -35 -81 23 1 26 6 76 13 112 l11 65 55 -3 c41 -2 118 12 300
57 264 64 275 66 285 50z m5280 -84 c32 -9 79 -25 104 -37 25 -11 62 -23 81
-27 34 -6 35 -7 43 -69 10 -68 4 -112 -15 -112 -6 0 -25 11 -42 24 -52 39
-115 67 -188 82 -63 13 -73 13 -95 -1 -69 -46 -46 -109 95 -257 55 -58 113
-130 129 -159 25 -48 28 -64 28 -144 -1 -78 -5 -98 -30 -150 -62 -130 -151
-185 -272 -170 -85 10 -164 34 -203 59 -27 18 -41 21 -59 14 -15 -5 -28 -4
-36 2 -13 11 -32 196 -22 207 3 3 32 -17 65 -45 77 -64 143 -95 212 -100 114
-8 164 40 164 158 0 88 -14 112 -149 250 -127 131 -152 176 -142 259 7 62 41
142 72 171 30 28 117 59 165 60 20 0 62 -7 95 -15z"/>
<path d="M4731 2341 c-15 -16 -32 -47 -39 -68 -43 -143 -41 -421 4 -556 18
-55 51 -81 102 -81 28 0 42 7 67 37 43 50 54 90 66 252 23 304 -19 445 -133
445 -31 0 -46 -6 -67 -29z"/>
<path d="M2011 2027 c-20 -33 -54 -148 -66 -223 l-6 -41 68 -6 c78 -7 109 -2
118 21 3 9 -9 76 -27 149 -36 146 -49 161 -87 100z"/>
<path d="M1972 1699 c-44 -17 -19 -34 55 -37 77 -3 123 9 123 33 0 12 -14 15
-77 14 -43 0 -89 -4 -101 -10z"/>
</g>
</svg>
